HIERARCHY
ROOT Hips
{
	OFFSET 0.000000 0.000000 0.000000
	CHANNELS 6 Xposition Yposition Zposition Zrotation Xrotation Yrotation
	JOINT Spine
	{
		OFFSET 0.000000 0.070167 0.000000
		CHANNELS 6 Xposition Yposition Zposition Zrotation Xrotation Yrotation
		JOINT Spine1
		{
			OFFSET 0.000000 0.166666 0.000000
			CHANNELS 6 Xposition Yposition Zposition Zrotation Xrotation Yrotation
			JOINT Neck
			{
				OFFSET 0.000000 0.183780 0.000000
				CHANNELS 6 Xposition Yposition Zposition Zrotation Xrotation Yrotation
				JOINT Head
				{
					OFFSET 0.000000 0.132633 0.017114
					CHANNELS 6 Xposition Yposition Zposition Zrotation Xrotation Yrotation
					End Site
					{
						OFFSET 0.000000 0.171140 0.000000
					}
				}
			}
			JOINT LeftShoulder
			{
				OFFSET 0.034466 0.144174 -0.004091
				CHANNELS 6 Xposition Yposition Zposition Zrotation Xrotation Yrotation
				JOINT LeftArm
				{
					OFFSET 0.121044 0.000000 0.000000
					CHANNELS 6 Xposition Yposition Zposition Zrotation Xrotation Yrotation
					JOINT LeftForeArm
					{
						OFFSET 0.257070 0.000000 0.000000
						CHANNELS 6 Xposition Yposition Zposition Zrotation Xrotation Yrotation
						JOINT LeftHand
						{
							OFFSET 0.224060 0.000000 0.000000
							CHANNELS 6 Xposition Yposition Zposition Zrotation Xrotation Yrotation
							End Site
							{
								OFFSET 0.128355 0.000000 0.000000
							}
						}
					}
				}
			}
			JOINT RightShoulder
			{
				OFFSET -0.033538 0.144174 -0.004091
				CHANNELS 6 Xposition Yposition Zposition Zrotation Xrotation Yrotation
				JOINT RightArm
				{
					OFFSET -0.121044 0.000000 0.000000
					CHANNELS 6 Xposition Yposition Zposition Zrotation Xrotation Yrotation
					JOINT RightForeArm
					{
						OFFSET -0.257070 0.000000 0.000000
						CHANNELS 6 Xposition Yposition Zposition Zrotation Xrotation Yrotation
						JOINT RightHand
						{
							OFFSET -0.224060 0.000000 0.000000
							CHANNELS 6 Xposition Yposition Zposition Zrotation Xrotation Yrotation
							End Site
							{
								OFFSET -0.128355 0.000000 0.000000
							}
						}
					}
				}
			}
		}
	}
	JOINT LeftUpLeg
	{
		OFFSET 0.085570 0.000000 0.000000
		CHANNELS 6 Xposition Yposition Zposition Zrotation Xrotation Yrotation
		JOINT LeftLeg
		{
			OFFSET 0.000000 -0.385526 -0.000000
			CHANNELS 6 Xposition Yposition Zposition Zrotation Xrotation Yrotation
			JOINT LeftFoot
			{
				OFFSET 0.000000 -0.365921 -0.000000
				CHANNELS 6 Xposition Yposition Zposition Zrotation Xrotation Yrotation
				JOINT LeftToeBase
				{
					OFFSET 0.000000 -0.055620 0.128355
					CHANNELS 6 Xposition Yposition Zposition Zrotation Xrotation Yrotation
					End Site
					{
						OFFSET 0.000000 0.000000 0.034228
					}
				}
			}
		}
	}
	JOINT RightUpLeg
	{
		OFFSET -0.085570 0.000000 0.000000
		CHANNELS 6 Xposition Yposition Zposition Zrotation Xrotation Yrotation
		JOINT RightLeg
		{
			OFFSET 0.000000 -0.385526 -0.000000
			CHANNELS 6 Xposition Yposition Zposition Zrotation Xrotation Yrotation
			JOINT RightFoot
			{
				OFFSET 0.000000 -0.365921 -0.000000
				CHANNELS 6 Xposition Yposition Zposition Zrotation Xrotation Yrotation
				JOINT RightToeBase
				{
					OFFSET 0.000000 -0.055620 0.128355
					CHANNELS 6 Xposition Yposition Zposition Zrotation Xrotation Yrotation
					End Site
					{
						OFFSET 0.000000 0.000000 0.034228
					}
				}
			}
		}
	}
}
MOTION
Frames: 7
Frame Time: 0.041667
0.190817 0.823309 0.023530 0.255022 -4.990878 -9.978972 0.000000 0.070167 0.000000 0.058070 -0.950380 1.050954 -0.000000 0.166666 0.000000 -0.478155 -2.461122 0.340249 0.000000 0.183780 0.000000 -3.287683 7.798446 -0.918712 -0.000000 0.132633 0.017114 5.542873 10.254801 -2.812315 0.034466 0.144174 -0.004091 8.385001 6.232729 -3.075065 0.121044 -0.000000 -0.000000 -43.653190 3.794635 7.845242 0.257070 0.000000 0.000000 7.132972 -4.100301 -46.576218 0.224060 0.000000 -0.000000 8.448325 -2.468542 -19.312963 -0.033538 0.144174 -0.004091 -13.497807 5.549052 -9.796750 -0.121044 0.000000 -0.000000 35.788221 23.371097 3.402596 -0.257070 -0.000000 0.000000 -9.464092 -4.617778 27.262097 -0.224060 -0.000000 0.000000 -5.837262 -2.997750 13.214714 0.085570 -0.000000 0.000000 3.415130 11.714875 -1.157060 -0.000000 -0.385526 -0.000000 0.189293 1.564496 -4.630432 0.000000 -0.365921 -0.000000 -9.983727 -8.322386 15.957760 0.000000 -0.055620 0.128355 0.000001 0.000005 0.000000 -0.085570 -0.000000 0.000000 -6.980027 8.198087 1.162242 -0.000000 -0.385526 -0.000000 1.848897 1.140861 4.981169 0.000000 -0.365921 -0.000000 -1.742634 -2.854875 6.268937 -0.000000 -0.055620 0.128355 0.000001 0.000000 -0.000000 
0.190610 0.823215 0.023161 0.198265 -4.945261 -9.969893 0.000000 0.070167 0.000000 0.050748 -1.002589 1.023375 -0.000000 0.166666 0.000000 -0.442888 -1.922020 0.333793 -0.000000 0.183780 0.000000 -3.512739 7.702462 -0.883170 0.000000 0.132633 0.017114 5.945898 9.981642 -2.891676 0.034466 0.144174 -0.004091 8.132553 6.664426 -2.569900 0.121044 0.000000 -0.000000 -45.474464 5.726592 6.973331 0.257070 0.000000 0.000000 7.368949 -3.992488 -47.506233 0.224060 0.000000 -0.000000 7.627066 -2.040745 -19.222068 -0.033538 0.144174 -0.004091 -13.219010 5.745759 -9.994699 -0.121044 0.000000 -0.000000 37.265328 25.541315 3.422197 -0.257070 -0.000000 -0.000000 -9.630295 -4.869983 28.141938 -0.224060 -0.000000 0.000000 -5.842251 -3.150178 13.566993 0.085570 -0.000000 -0.000000 3.515598 11.663305 -1.130233 0.000000 -0.385526 -0.000000 0.167203 1.556513 -4.684880 -0.000000 -0.365921 -0.000000 -9.980049 -8.403341 15.960639 0.000000 -0.055620 0.128355 0.000001 -0.000001 0.000000 -0.085570 -0.000000 0.000000 -6.888662 8.095549 1.276101 -0.000000 -0.385526 -0.000000 1.840719 1.238190 5.094297 0.000000 -0.365921 -0.000000 -1.784284 -2.896650 6.030335 0.000000 -0.055620 0.128355 0.000001 0.000002 -0.000000 
0.190445 0.823199 0.022758 0.144486 -4.897412 -9.972927 -0.000000 0.070167 0.000000 0.062345 -0.929896 1.019340 0.000000 0.166666 0.000000 -0.441495 -1.552412 0.333971 0.000000 0.183780 0.000000 -3.334253 7.250108 -0.926633 0.000000 0.132633 0.017114 5.699511 10.391648 -2.854403 0.034466 0.144174 -0.004091 7.822523 6.880579 -2.286777 0.121044 -0.000000 -0.000000 -46.668494 5.927733 6.097713 0.257070 0.000000 0.000000 6.257852 -2.152899 -47.974617 0.224060 0.000000 -0.000000 7.759823 -0.708210 -19.599588 -0.033538 0.144174 -0.004091 -12.831247 6.034301 -10.336131 -0.121044 0.000000 0.000000 38.528745 27.529291 3.747420 -0.257070 -0.000000 -0.000000 -9.839471 -4.813294 28.798646 -0.224060 -0.000000 0.000000 -5.700121 -2.982648 13.945298 0.085570 -0.000000 0.000000 3.586288 11.613054 -1.180232 -0.000000 -0.385526 -0.000000 0.183701 1.532050 -4.571325 -0.000000 -0.365921 -0.000000 -9.982940 -8.438963 15.885652 0.000000 -0.055620 0.128355 0.000000 0.000004 0.000001 -0.085570 0.000000 0.000000 -6.807871 7.975835 1.354277 0.000000 -0.385526 -0.000000 1.844107 1.348001 5.248294 0.000000 -0.365921 -0.000000 -1.824294 -2.900580 5.786487 -0.000000 -0.055620 0.128355 0.000000 -0.000001 -0.000000 
0.190380 0.823068 0.022203 0.138279 -4.855627 -9.994970 -0.000000 0.070167 0.000000 0.053167 -0.855227 1.020485 0.000000 0.166666 0.000000 -0.498469 -1.090225 0.335550 -0.000000 0.183780 0.000000 -3.352992 6.977499 -0.827918 0.000000 0.132633 0.017114 5.833880 10.295161 -2.772723 0.034466 0.144174 -0.004091 7.642200 7.157513 -2.016347 0.121044 -0.000000 -0.000000 -48.041000 6.858783 5.316259 0.257070 -0.000000 -0.000000 6.345489 -0.515310 -48.360348 0.224060 0.000000 -0.000000 6.990482 1.086264 -20.264131 -0.033538 0.144174 -0.004091 -12.410899 6.222331 -10.747316 -0.121044 -0.000000 0.000000 39.628505 29.107251 4.295107 -0.257070 0.000000 -0.000000 -10.024136 -4.009604 29.216981 -0.224060 -0.000000 -0.000000 -5.471919 -2.102701 14.772603 0.085570 -0.000000 -0.000000 3.590183 11.561483 -1.272000 0.000000 -0.385526 -0.000000 0.216845 1.487150 -4.266745 0.000000 -0.365921 -0.000000 -9.997169 -8.412284 15.684843 -0.000000 -0.055620 0.128355 -0.000001 0.000003 0.000000 -0.085570 0.000000 0.000000 -6.872867 7.760308 1.442542 -0.000000 -0.385526 -0.000000 2.016370 1.611539 5.414193 0.000000 -0.365921 -0.000000 -1.915536 -3.029588 5.590002 -0.000000 -0.055620 0.128355 -0.000000 0.000006 -0.000000 
0.190167 0.823016 0.021655 0.098280 -4.808069 -9.966143 -0.000000 0.070167 0.000000 0.041422 -0.928047 1.038356 0.000000 0.166666 0.000000 -0.574880 -0.387886 0.344371 0.000000 0.183780 0.000000 -3.041526 6.589206 -1.072115 0.000000 0.132633 0.017114 5.591435 10.548885 -2.913175 0.034466 0.144174 -0.004091 7.435241 7.365977 -2.069752 0.121044 0.000000 -0.000000 -49.265499 7.315020 4.738001 0.257070 -0.000000 0.000000 6.939361 1.564430 -48.765467 0.224060 0.000000 -0.000000 5.716073 3.655223 -20.929197 -0.033538 0.144174 -0.004091 -11.810510 6.399060 -11.148079 -0.121044 -0.000000 -0.000000 40.657668 30.419911 4.721505 -0.257070 0.000000 -0.000000 -10.410061 -3.212062 29.758338 -0.224060 -0.000000 -0.000000 -4.951045 -1.104333 15.276767 0.085570 0.000000 0.000000 3.640011 11.509625 -1.574034 0.000000 -0.385526 -0.000000 0.263257 1.429656 -3.724486 0.000000 -0.365921 -0.000000 -10.042730 -8.378084 15.426537 0.000000 -0.055620 0.128355 -0.000000 -0.000003 -0.000000 -0.085570 0.000000 -0.000000 -6.794872 7.627559 1.403147 -0.000000 -0.385526 -0.000000 2.009338 1.747389 5.558150 0.000000 -0.365921 -0.000000 -1.949543 -3.100848 5.450252 -0.000000 -0.055620 0.128355 -0.000002 0.000004 0.000000 
0.190061 0.822971 0.021109 0.096290 -4.754116 -9.971201 0.000000 0.070167 0.000000 0.110737 -0.711637 1.021174 0.000000 0.166666 0.000000 -0.797196 -0.169171 0.339211 0.000000 0.183780 0.000000 -2.860078 6.448908 -1.099635 0.000000 0.132633 0.017114 5.532195 10.582109 -2.891873 0.034466 0.144174 -0.004091 7.231383 7.588195 -1.865571 0.121044 0.000000 -0.000000 -50.662751 9.104728 4.407580 0.257070 0.000000 0.000000 8.871896 3.011204 -49.219361 0.224060 0.000000 -0.000000 3.833831 6.346856 -21.438159 -0.033538 0.144174 -0.004091 -11.247207 6.705038 -11.540049 -0.121044 0.000000 0.000000 41.695542 31.483928 5.262055 -0.257070 0.000000 -0.000000 -10.608345 -2.230576 30.244781 -0.224060 -0.000000 -0.000000 -4.932364 -0.031129 15.584390 0.085570 0.000000 -0.000000 3.642074 11.414199 -1.760519 -0.000000 -0.385526 -0.000000 0.302946 1.435445 -3.257590 -0.000000 -0.365921 -0.000000 -10.087039 -8.348714 15.170424 0.000000 -0.055620 0.128355 -0.000000 0.000003 -0.000000 -0.085570 0.000000 -0.000000 -6.770311 7.466087 1.387423 -0.000000 -0.385526 -0.000000 2.018680 1.884792 5.712475 0.000000 -0.365921 -0.000000 -1.945935 -3.136694 5.301495 0.000000 -0.055620 0.128355 -0.000000 0.000000 0.000000 
0.189983 0.822905 0.020524 0.112518 -4.696875 -9.957622 0.000000 0.070167 0.000000 0.156741 -0.627160 1.003544 -0.000000 0.166666 0.000000 -1.006380 0.327737 0.337490 -0.000000 0.183780 0.000000 -2.674856 6.303040 -1.171191 0.000000 0.132633 0.017114 5.474689 10.438729 -2.907945 0.034466 0.144174 -0.004091 7.159646 8.058649 -1.474893 0.121044 0.000000 0.000000 -51.509274 9.597775 3.260123 0.257070 0.000000 0.000000 9.647448 5.711016 -49.312388 0.224060 0.000000 0.000000 3.058409 9.531168 -21.688064 -0.033538 0.144174 -0.004091 -10.785253 6.937715 -11.825686 -0.121044 -0.000000 0.000000 42.808299 32.515990 5.565367 -0.257070 -0.000000 -0.000000 -10.882849 -1.348884 30.817305 -0.224060 -0.000000 0.000000 -4.780424 0.988295 15.984425 0.085570 0.000000 0.000000 3.627072 11.278195 -1.956127 -0.000000 -0.385526 -0.000000 0.344059 1.504140 -2.926437 0.000000 -0.365921 -0.000000 -10.103244 -8.349286 15.030449 0.000000 -0.055620 0.128355 0.000000 -0.000001 0.000000 -0.085570 0.000000 0.000000 -6.765264 7.301567 1.336147 -0.000000 -0.385526 -0.000000 2.028343 2.027170 5.851355 0.000000 -0.365921 -0.000000 -1.983965 -3.228588 5.209007 -0.000000 -0.055620 0.128355 0.000000 0.000000 0.000000 
